<svg xmlns="http://www.w3.org/2000/svg" width="54" height="35"><defs><filter id="a" width="129.6%" height="145.7%" x="-14.8%" y="-22.9%" filterUnits="objectBoundingBox"><feOffset dy="2" in="SourceAlpha" result="shadowOffsetOuter1"/><feGaussianBlur in="shadowOffsetOuter1" result="shadowBlurOuter1" stdDeviation="1"/><feColorMatrix in="shadowBlurOuter1" result="shadowMatrixOuter1" values="0 0 0 0 0 0 0 0 0 0 0 0 0 0 0 0 0 0 0.117385643 0"/><feMerge><feMergeNode in="shadowMatrixOuter1"/><feMergeNode in="SourceGraphic"/></feMerge></filter></defs><g fill="none" fill-rule="evenodd"><g filter="url(#a)" fill="#FFF" fill-rule="nonzero"><path d="M52.2 35H1.8C.808 35 0 34.165 0 33.134V1.866C0 .836.807 0 1.8 0h50.4c.993 0 1.8.835 1.8 1.866v31.268c0 1.03-.807 1.866-1.8 1.866z"/></g><path fill="#253B80" fill-rule="nonzero" d="M21.397 14.444h-2.426a.338.338 0 00-.333.29l-.982 6.35a.205.205 0 00.2.238h1.159a.34.34 0 00.333-.29l.265-1.713a.338.338 0 01.332-.291h.769c1.598 0 2.52-.79 2.762-2.354.108-.684.004-1.222-.31-1.598-.345-.414-.956-.632-1.769-.632zm.28 2.319c-.132.888-.798.888-1.44.888h-.367l.257-1.66c.015-.1.1-.173.2-.173h.167c.439 0 .852 0 1.066.255.127.152.166.378.117.69zm6.974-.029H27.49a.205.205 0 00-.2.174l-.05.332-.082-.12c-.252-.373-.813-.497-1.373-.497-1.284 0-2.38.992-2.594 2.384-.111.695.047 1.359.433 1.822.354.426.86.603 1.463.603 1.035 0 1.609-.679 1.609-.679l-.052.33a.205.205 0 00.2.239h1.046a.338.338 0 00.333-.291l.628-4.059a.204.204 0 00-.199-.238zm-1.62 2.308c-.112.678-.638 1.132-1.31 1.132-.338 0-.608-.11-.78-.32-.173-.207-.238-.503-.183-.833.104-.671.64-1.14 1.302-1.14.33 0 .598.111.775.322.177.213.247.511.197.84z"/><path fill="#253B80" d="M34.84 16.734h-1.167a.34.34 0 00-.28.151l-1.61 2.421-.683-2.326a.338.338 0 00-.323-.246h-1.148c-.14 0-.236.14-.192.273l1.286 3.852-1.209 1.742c-.095.137 0 .326.165.326h1.166a.336.336 0 00.278-.148l3.884-5.72c.093-.138-.003-.325-.166-.325z"/><path fill="#179BD7" fill-rule="nonzero" d="M38.707 14.444H36.28a.34.34 0 00-.333.29l-.982 6.35a.205.205 0 00.2.238h1.245a.237.237 0 00.233-.203l.279-1.8a.338.338 0 01.332-.291h.768c1.6 0 2.521-.79 2.763-2.354.109-.684.004-1.222-.31-1.598-.345-.414-.956-.632-1.768-.632zm.28 2.319c-.133.888-.798.888-1.442.888h-.365l.257-1.66c.015-.1.1-.173.2-.173h.167c.438 0 .852 0 1.065.255.128.152.166.378.118.69zm6.973-.029H44.8c-.1 0-.185.074-.2.174l-.052.332-.081-.12c-.252-.373-.813-.497-1.373-.497-1.284 0-2.38.992-2.594 2.384-.11.695.047 1.359.433 1.822.355.426.86.603 1.463.603 1.035 0 1.609-.679 1.609-.679l-.052.33a.205.205 0 00.2.239H45.2a.34.34 0 00.333-.291l.628-4.059a.205.205 0 00-.2-.238zm-1.62 2.308c-.11.678-.638 1.132-1.31 1.132-.337 0-.608-.11-.78-.32-.173-.207-.237-.503-.183-.833.105-.671.64-1.14 1.302-1.14.33 0 .598.111.775.322.178.213.248.511.197.84z"/><path fill="#179BD7" d="M47.33 14.618l-.996 6.466a.205.205 0 00.2.238h1.001a.338.338 0 00.333-.29l.983-6.35a.206.206 0 00-.2-.239H47.53c-.1 0-.184.075-.2.175z"/><path fill="#253B80" d="M7.578 22.556l.186-1.203-.414-.01H5.376l1.372-8.875a.113.113 0 01.112-.097h3.328c1.105 0 1.868.234 2.266.697.186.218.305.445.363.695.06.262.061.575.002.957l-.004.028v.245l.187.107c.157.086.282.183.378.295.16.185.262.421.306.701.045.288.03.63-.044 1.018a3.631 3.631 0 01-.408 1.153c-.171.293-.39.536-.648.724a2.6 2.6 0 01-.872.402 4.29 4.29 0 01-1.09.128h-.26a.78.78 0 00-.77.671l-.02.108-.327 2.12-.015.078c-.004.025-.01.037-.02.045s-.022.013-.034.013h-1.6z"/><path fill="#179BD7" d="M13.178 14.776c-.01.065-.021.131-.034.2-.439 2.299-1.94 3.093-3.858 3.093h-.977a.478.478 0 00-.469.41l-.5 3.236-.141.917a.253.253 0 00.247.294h1.732a.419.419 0 00.411-.358l.017-.09.326-2.111.021-.116a.42.42 0 01.412-.36h.259c1.678 0 2.991-.695 3.375-2.706.16-.84.078-1.542-.347-2.036a1.647 1.647 0 00-.474-.373z"/><path fill="#222D65" d="M12.72 14.59a3.33 3.33 0 00-.428-.097 5.239 5.239 0 00-.86-.065h-2.61a.407.407 0 00-.18.042.422.422 0 00-.23.318l-.556 3.586-.016.105a.479.479 0 01.47-.41h.976c1.918 0 3.42-.795 3.858-3.094a5.54 5.54 0 00.034-.199 2.309 2.309 0 00-.36-.155l-.099-.032z"/><path fill="#253B80" d="M8.411 14.788a.417.417 0 01.412-.359h2.607a5.248 5.248 0 011.081.106c.07.017.14.035.207.055l.099.03c.13.045.25.096.36.156.131-.85 0-1.428-.45-1.952-.497-.577-1.393-.824-2.54-.824H6.86a.479.479 0 00-.47.41l-1.386 8.967a.29.29 0 00.282.338H7.34l.515-3.34.555-3.587z"/></g></svg>
