<svg width="58" height="39" fill="none" xmlns="http://www.w3.org/2000/svg"><g filter="url(#a)"><path d="M54.2 35H3.8c-.993 0-1.8-.835-1.8-1.866V1.866C2 .836 2.807 0 3.8 0h50.4c.993 0 1.8.835 1.8 1.866v31.268c0 1.03-.807 1.866-1.8 1.866z" fill="#fff"/></g><path d="m25.056 12.167-4.5 10.722H17.61l-2.222-8.556c-.111-.5-.278-.722-.667-.944A11.187 11.187 0 0 0 12 12.5l.056-.333h4.722c.61 0 1.166.389 1.278 1.11l1.166 6.223 2.89-7.278h2.944v-.055zm11.5 7.222c0-2.833-3.89-3-3.89-4.222 0-.39.39-.778 1.167-.89.39-.055 1.5-.11 2.723.5l.5-2.277c-.667-.222-1.5-.5-2.612-.5-2.722 0-4.666 1.444-4.666 3.556 0 1.555 1.389 2.388 2.444 2.888 1.056.5 1.445.834 1.445 1.334 0 .722-.834 1.055-1.667 1.055-1.389 0-2.222-.389-2.833-.666l-.5 2.333c.666.278 1.833.556 3.055.556 2.89 0 4.778-1.445 4.834-3.667zm7.222 3.5h2.555l-2.222-10.722h-2.389c-.555 0-1 .333-1.166.777l-4.167 9.945h2.889l.555-1.611h3.556l.389 1.61zm-3.111-3.778 1.444-4 .833 4h-2.277zM29 12.167l-2.278 10.722h-2.778l2.278-10.722H29z" fill="#1A1F71"/><defs><filter id="a" x="0" y="0" width="58" height="39" filterUnits="userSpaceOnUse" color-interpolation-filters="sRGB"><feFlood flood-opacity="0" result="BackgroundImageFix"/><feColorMatrix in="SourceAlpha" values="0 0 0 0 0 0 0 0 0 0 0 0 0 0 0 0 0 0 127 0"/><feOffset dy="2"/><feGaussianBlur stdDeviation="1"/><feColorMatrix values="0 0 0 0 0 0 0 0 0 0 0 0 0 0 0 0 0 0 0.117386 0"/><feBlend in2="BackgroundImageFix" result="effect1_dropShadow"/><feBlend in="SourceGraphic" in2="effect1_dropShadow" result="shape"/></filter></defs></svg>